<svg width="486" height="299" viewBox="0 0 486 299" fill="none" xmlns="http://www.w3.org/2000/svg">
<g filter="url(#filter0_d)">
<mask id="path-1-inside-1" fill="white">
<path d="M119.417 1.71699C117.917 2.61699 115.617 5.81699 114.217 9.01699C112.517 12.817 10.317 265.617 4.01703 281.517C3.71703 282.117 7.41703 284.117 12.217 286.017C19.417 288.917 20.917 289.217 21.617 288.017C22.117 287.217 31.217 265.017 41.817 238.717L61.017 191.017H127.217H193.417L199.417 205.717C202.717 213.917 210.417 233.017 216.617 248.217C222.817 263.517 229.017 277.517 230.517 279.417C236.117 286.617 247.717 286.817 253.317 279.717C254.417 278.317 263.117 257.717 272.717 234.017L290.017 191.017H357.117H424.117L444.117 240.517C455.117 267.717 464.417 290.017 464.817 290.017C465.717 290.017 480.917 284.017 481.517 283.417C481.717 283.217 456.817 220.817 426.117 144.817C385.117 43.217 369.517 5.71699 367.517 3.61699C362.517 -1.58301 350.217 -1.08301 345.617 4.51699C344.917 5.41699 329.317 43.117 311.017 88.317L277.817 170.517L241.917 170.817L206.017 171.017L172.617 88.317C154.217 42.817 138.217 4.51699 137.017 3.11699C135.217 1.01699 133.817 0.616994 128.517 0.316994C123.717 0.016994 121.417 0.416994 119.417 1.71699ZM387.017 99.317C402.717 138.217 415.617 170.317 415.617 170.517C415.617 170.817 389.317 171.017 357.117 171.017C324.917 171.017 298.617 170.717 298.617 170.417C298.617 169.917 339.717 67.717 351.817 38.117C355.117 30.317 357.217 26.317 357.717 27.117C358.117 27.917 371.317 60.417 387.017 99.317ZM156.617 99.817L185.217 170.517L127.717 170.817C96.117 170.917 70.117 170.817 69.917 170.617C69.717 170.417 82.417 138.217 98.217 99.117C114.017 60.017 127.217 28.217 127.517 28.517C127.817 28.817 140.917 60.917 156.617 99.817ZM267.817 195.317C249.817 240.317 242.017 258.817 241.517 258.217C240.817 257.417 214.617 192.717 214.617 191.717C214.617 191.317 227.017 191.017 242.117 191.017H269.617L267.817 195.317Z"/>
</mask>
<path d="M119.417 1.71699C117.917 2.61699 115.617 5.81699 114.217 9.01699C112.517 12.817 10.317 265.617 4.01703 281.517C3.71703 282.117 7.41703 284.117 12.217 286.017C19.417 288.917 20.917 289.217 21.617 288.017C22.117 287.217 31.217 265.017 41.817 238.717L61.017 191.017H127.217H193.417L199.417 205.717C202.717 213.917 210.417 233.017 216.617 248.217C222.817 263.517 229.017 277.517 230.517 279.417C236.117 286.617 247.717 286.817 253.317 279.717C254.417 278.317 263.117 257.717 272.717 234.017L290.017 191.017H357.117H424.117L444.117 240.517C455.117 267.717 464.417 290.017 464.817 290.017C465.717 290.017 480.917 284.017 481.517 283.417C481.717 283.217 456.817 220.817 426.117 144.817C385.117 43.217 369.517 5.71699 367.517 3.61699C362.517 -1.58301 350.217 -1.08301 345.617 4.51699C344.917 5.41699 329.317 43.117 311.017 88.317L277.817 170.517L241.917 170.817L206.017 171.017L172.617 88.317C154.217 42.817 138.217 4.51699 137.017 3.11699C135.217 1.01699 133.817 0.616994 128.517 0.316994C123.717 0.016994 121.417 0.416994 119.417 1.71699ZM387.017 99.317C402.717 138.217 415.617 170.317 415.617 170.517C415.617 170.817 389.317 171.017 357.117 171.017C324.917 171.017 298.617 170.717 298.617 170.417C298.617 169.917 339.717 67.717 351.817 38.117C355.117 30.317 357.217 26.317 357.717 27.117C358.117 27.917 371.317 60.417 387.017 99.317ZM156.617 99.817L185.217 170.517L127.717 170.817C96.117 170.917 70.117 170.817 69.917 170.617C69.717 170.417 82.417 138.217 98.217 99.117C114.017 60.017 127.217 28.217 127.517 28.517C127.817 28.817 140.917 60.917 156.617 99.817ZM267.817 195.317C249.817 240.317 242.017 258.817 241.517 258.217C240.817 257.417 214.617 192.717 214.617 191.717C214.617 191.317 227.017 191.017 242.117 191.017H269.617L267.817 195.317Z" fill="url(#paint0_radial)"/>
<path d="M119.417 1.71699L120.507 3.39388L120.477 3.41348L120.446 3.43198L119.417 1.71699ZM114.217 9.01699L116.049 9.81863L116.046 9.82619L116.043 9.83373L114.217 9.01699ZM4.01703 281.517L5.87639 282.254L5.84455 282.334L5.80589 282.411L4.01703 281.517ZM12.217 286.017L12.9531 284.157L12.9643 284.162L12.217 286.017ZM21.617 288.017L19.8895 287.009L19.9049 286.983L19.921 286.957L21.617 288.017ZM41.817 238.717L43.6724 239.464L43.672 239.465L41.817 238.717ZM61.017 191.017L59.1617 190.27L59.6661 189.017H61.017V191.017ZM193.417 191.017V189.017H194.761L195.269 190.261L193.417 191.017ZM199.417 205.717L201.269 204.961L201.272 204.97L199.417 205.717ZM216.617 248.217L218.469 247.462L218.471 247.466L216.617 248.217ZM230.517 279.417L232.087 278.178L232.091 278.183L232.096 278.189L230.517 279.417ZM253.317 279.717L254.89 280.953L254.887 280.956L253.317 279.717ZM272.717 234.017L274.573 234.763L274.571 234.768L272.717 234.017ZM290.017 191.017L288.162 190.27L288.666 189.017H290.017V191.017ZM424.117 191.017V189.017H425.466L425.971 190.268L424.117 191.017ZM444.117 240.517L442.263 241.267L442.263 241.266L444.117 240.517ZM426.117 144.817L424.263 145.566L424.262 145.565L426.117 144.817ZM367.517 3.61699L368.959 2.23076L368.965 2.23768L367.517 3.61699ZM345.617 4.51699L344.038 3.28911L344.055 3.26809L344.072 3.24752L345.617 4.51699ZM311.017 88.317L309.163 87.568L309.163 87.5664L311.017 88.317ZM277.817 170.517L279.671 171.266L279.171 172.506L277.834 172.517L277.817 170.517ZM241.917 170.817L241.934 172.817L241.928 172.817L241.917 170.817ZM206.017 171.017L206.028 173.017L204.671 173.025L204.163 171.766L206.017 171.017ZM172.617 88.317L174.471 87.5672L174.472 87.568L172.617 88.317ZM128.517 0.316994L128.404 2.31383L128.392 2.3131L128.517 0.316994ZM351.817 38.117L349.966 37.3602L349.97 37.3489L349.975 37.3377L351.817 38.117ZM357.717 27.117L359.413 26.057L359.463 26.1376L359.506 26.2226L357.717 27.117ZM156.617 99.817L154.763 100.567L154.762 100.566L156.617 99.817ZM185.217 170.517L187.071 169.767L188.177 172.502L185.227 172.517L185.217 170.517ZM127.717 170.817L127.727 172.817L127.723 172.817L127.717 170.817ZM267.817 195.317L265.96 194.574L265.966 194.559L265.972 194.545L267.817 195.317ZM241.517 258.217L243.022 256.9L243.038 256.918L243.053 256.937L241.517 258.217ZM269.617 191.017V189.017H272.622L271.462 191.789L269.617 191.017ZM120.446 3.43198C120.068 3.65901 119.315 4.3957 118.407 5.66697C117.547 6.87137 116.691 8.35093 116.049 9.81863L112.385 8.21536C113.143 6.48306 114.137 4.76262 115.152 3.34202C116.119 1.98828 117.266 0.674977 118.388 0.00200814L120.446 3.43198ZM116.043 9.83373C114.365 13.5836 12.1851 266.332 5.87639 282.254L2.15767 280.78C8.44898 264.902 110.669 12.0504 112.391 8.20026L116.043 9.83373ZM5.80589 282.411C6.29462 281.434 5.72846 280.663 5.71977 280.651C5.63859 280.536 5.60357 280.531 5.7406 280.64C5.98612 280.835 6.45265 281.136 7.16327 281.524C8.55643 282.285 10.6014 283.226 12.9531 284.157L11.4809 287.877C9.03269 286.908 6.82764 285.899 5.24579 285.035C4.46891 284.61 3.7667 284.18 3.25284 283.772C3.01018 283.579 2.69781 283.305 2.45297 282.959C2.2806 282.715 1.66444 281.75 2.22818 280.623L5.80589 282.411ZM12.9643 284.162C16.6105 285.63 18.6112 286.354 19.7675 286.598C20.3485 286.72 20.4515 286.659 20.3421 286.688C20.2576 286.711 20.1422 286.763 20.0327 286.853C19.9314 286.937 19.8892 287.01 19.8895 287.009L23.3446 289.025C22.9616 289.681 22.3465 290.289 21.3888 290.549C20.5764 290.769 19.723 290.676 18.9416 290.511C17.3728 290.18 15.0236 289.304 11.4698 287.872L12.9643 284.162ZM19.921 286.957C19.8659 287.045 19.8709 287.053 19.9888 286.794C20.0779 286.597 20.2009 286.318 20.3577 285.955C20.6705 285.23 21.1049 284.203 21.6484 282.903C22.7348 280.305 24.2483 276.638 26.0789 272.171C29.7396 263.238 34.6631 251.117 39.962 237.969L43.672 239.465C38.371 252.617 33.4445 264.746 29.7802 273.688C27.9482 278.158 26.4306 281.835 25.3388 284.446C24.7933 285.751 24.3519 286.795 24.0299 287.541C23.8693 287.912 23.7351 288.218 23.6309 288.447C23.5553 288.614 23.4306 288.889 23.313 289.077L19.921 286.957ZM39.9617 237.97L59.1617 190.27L62.8724 191.764L43.6724 239.464L39.9617 237.97ZM61.017 189.017H127.217V193.017H61.017V189.017ZM127.217 189.017H193.417V193.017H127.217V189.017ZM195.269 190.261L201.269 204.961L197.565 206.473L191.565 191.773L195.269 190.261ZM201.272 204.97C204.572 213.17 212.271 232.266 218.469 247.462L214.765 248.972C208.563 233.768 200.862 214.664 197.562 206.464L201.272 204.97ZM218.471 247.466C221.564 255.1 224.655 262.404 227.157 268.029C228.408 270.844 229.507 273.225 230.381 275.014C231.3 276.893 231.873 277.906 232.087 278.178L228.947 280.656C228.411 279.978 227.647 278.529 226.787 276.77C225.883 274.921 224.763 272.49 223.502 269.655C220.979 263.98 217.87 256.634 214.763 248.968L218.471 247.466ZM232.096 278.189C236.928 284.402 246.981 284.521 251.747 278.478L254.887 280.956C248.453 289.113 235.306 288.832 228.938 280.645L232.096 278.189ZM251.744 278.481C251.697 278.542 251.724 278.517 251.852 278.281C251.959 278.083 252.1 277.807 252.274 277.448C252.623 276.732 253.081 275.742 253.637 274.5C254.749 272.02 256.234 268.588 257.988 264.449C261.495 256.174 266.066 245.11 270.863 233.266L274.571 234.768C269.768 246.624 265.189 257.71 261.671 266.01C259.913 270.159 258.416 273.62 257.287 276.137C256.724 277.394 256.246 278.428 255.871 279.199C255.684 279.583 255.515 279.917 255.369 280.186C255.244 280.417 255.075 280.717 254.89 280.953L251.744 278.481ZM270.862 233.27L288.162 190.27L291.873 191.763L274.573 234.763L270.862 233.27ZM290.017 189.017H357.117V193.017H290.017V189.017ZM357.117 189.017H424.117V193.017H357.117V189.017ZM425.971 190.268L445.971 239.768L442.263 241.266L422.263 191.766L425.971 190.268ZM445.971 239.767C451.469 253.363 456.541 265.73 460.287 274.696C462.161 279.18 463.7 282.806 464.793 285.306C465.341 286.559 465.771 287.515 466.071 288.149C466.224 288.472 466.33 288.683 466.395 288.802C466.432 288.869 466.43 288.861 466.4 288.817C466.39 288.803 466.328 288.712 466.223 288.603C466.171 288.55 466.058 288.441 465.89 288.332C465.75 288.242 465.367 288.017 464.817 288.017V292.017C464.261 292.017 463.871 291.79 463.722 291.694C463.545 291.58 463.423 291.462 463.361 291.398C463.234 291.268 463.147 291.145 463.107 291.087C463.018 290.958 462.94 290.821 462.884 290.718C462.763 290.497 462.618 290.202 462.457 289.862C462.129 289.171 461.68 288.171 461.128 286.909C460.022 284.378 458.473 280.729 456.597 276.238C452.843 267.254 447.765 254.871 442.263 241.267L445.971 239.767ZM464.817 288.017C464.556 288.017 464.402 288.08 464.618 288.021C464.732 287.989 464.906 287.936 465.144 287.858C465.616 287.703 466.261 287.475 467.034 287.192C468.574 286.628 470.561 285.866 472.545 285.082C474.529 284.298 476.497 283.499 477.999 282.86C478.753 282.54 479.375 282.267 479.819 282.06C480.043 281.956 480.201 281.877 480.301 281.824C480.352 281.797 480.367 281.787 480.36 281.792C480.356 281.795 480.333 281.809 480.299 281.834C480.272 281.853 480.195 281.911 480.103 282.003L482.931 284.831C482.741 285.021 482.543 285.145 482.478 285.185C482.378 285.248 482.274 285.306 482.18 285.356C481.991 285.456 481.76 285.568 481.51 285.685C481.004 285.921 480.333 286.215 479.563 286.542C478.019 287.198 476.017 288.011 474.014 288.802C472.011 289.593 469.991 290.369 468.41 290.948C467.621 291.237 466.927 291.483 466.393 291.658C466.128 291.745 465.882 291.822 465.675 291.878C465.569 291.907 465.19 292.017 464.817 292.017V288.017ZM480.103 282.003C479.881 282.267 479.627 282.763 479.569 282.966C479.544 283.095 479.521 283.313 479.518 283.4C479.517 283.561 479.537 283.685 479.543 283.723C479.559 283.818 479.577 283.884 479.578 283.887C479.584 283.91 479.584 283.905 479.566 283.851C479.534 283.754 479.476 283.591 479.388 283.353C479.215 282.881 478.947 282.175 478.587 281.24C477.868 279.374 476.794 276.629 475.402 273.097C472.617 266.036 468.566 255.845 463.547 243.284C453.511 218.162 439.612 183.564 424.263 145.566L427.971 144.068C443.322 182.07 457.223 216.672 467.262 241.8C472.281 254.364 476.335 264.561 479.123 271.63C480.516 275.164 481.595 277.921 482.32 279.802C482.681 280.742 482.958 281.471 483.142 281.972C483.233 282.22 483.308 282.428 483.36 282.584C483.384 282.656 483.414 282.748 483.438 282.838C483.448 282.874 483.473 282.966 483.491 283.078C483.499 283.126 483.519 283.257 483.518 283.424C483.516 283.513 483.493 283.733 483.467 283.864C483.408 284.069 483.154 284.566 482.931 284.831L480.103 282.003ZM424.262 145.565C403.762 94.7656 389.616 59.9988 380.345 37.6714C375.709 26.5058 372.297 18.4633 369.922 13.086C368.733 10.3951 367.812 8.38924 367.132 6.99985C366.79 6.30351 366.52 5.78229 366.313 5.41565C366.072 4.98882 366.001 4.92526 366.069 4.9963L368.965 2.23768C369.283 2.57123 369.569 3.04673 369.796 3.44954C370.057 3.91254 370.367 4.51153 370.724 5.24C371.439 6.70022 372.385 8.76237 373.581 11.4699C375.975 16.8895 379.4 24.9656 384.039 36.1375C393.318 58.4852 407.472 93.2684 427.972 144.069L424.262 145.565ZM366.075 5.00321C364.123 2.97254 360.462 1.85307 356.499 2.01532C352.537 2.17751 348.965 3.59238 347.162 5.78647L344.072 3.24752C346.869 -0.158396 351.747 -1.79352 356.335 -1.98133C360.922 -2.16908 365.911 -0.938552 368.959 2.23078L366.075 5.00321ZM347.196 5.74488C347.311 5.59656 347.358 5.48332 347.289 5.6178C347.254 5.68665 347.201 5.79675 347.126 5.95605C346.979 6.27185 346.774 6.72863 346.511 7.32644C345.987 8.5191 345.253 10.2322 344.331 12.4132C342.487 16.7729 339.902 22.9764 336.765 30.5682C330.493 45.7505 322.019 66.471 312.871 89.0675L309.163 87.5664C318.315 64.963 326.791 44.2335 333.069 29.0408C336.207 21.445 338.797 15.2298 340.647 10.8552C341.571 8.66895 342.314 6.93598 342.849 5.71809C343.116 5.11063 343.335 4.62103 343.502 4.26363C343.585 4.08634 343.661 3.92813 343.727 3.79878C343.759 3.73504 343.879 3.49368 344.038 3.28911L347.196 5.74488ZM312.871 89.066L279.671 171.266L275.963 169.768L309.163 87.568L312.871 89.066ZM277.834 172.517L241.934 172.817L241.9 168.817L277.8 168.517L277.834 172.517ZM241.928 172.817L206.028 173.017L206.006 169.017L241.906 168.817L241.928 172.817ZM204.163 171.766L170.763 89.066L174.472 87.568L207.872 170.268L204.163 171.766ZM170.763 89.0668C161.565 66.3218 152.968 45.3792 146.522 29.9505C143.298 22.2351 140.615 15.9047 138.664 11.4193C137.688 9.17492 136.9 7.40305 136.322 6.15423C136.032 5.52803 135.801 5.04825 135.63 4.71196C135.544 4.54278 135.481 4.4258 135.438 4.35184C135.375 4.24097 135.403 4.30665 135.499 4.41858L138.536 1.81541C138.706 2.01484 138.838 2.24009 138.907 2.35904C138.996 2.51491 139.093 2.69802 139.195 2.89737C139.399 3.29815 139.653 3.8292 139.951 4.47312C140.549 5.76453 141.352 7.57001 142.332 9.82409C144.294 14.3355 146.986 20.6864 150.212 28.4085C156.666 43.8548 165.269 64.8122 174.471 87.5672L170.763 89.0668ZM135.499 4.41858C134.765 3.5627 134.257 3.20131 133.464 2.94505C132.508 2.63604 131.085 2.46557 128.404 2.3138L128.63 -1.67981C131.249 -1.53158 133.176 -1.35205 134.695 -0.861061C136.377 -0.317325 137.469 0.571284 138.536 1.81541L135.499 4.41858ZM128.392 2.3131C123.697 2.01967 121.947 2.45806 120.507 3.39388L118.327 0.0401068C120.887 -1.62407 123.737 -1.98568 128.642 -1.67911L128.392 2.3131ZM388.872 98.5685C396.722 118.019 403.872 135.77 409.06 148.684C411.654 155.141 413.758 160.389 415.214 164.037C415.941 165.86 416.508 167.285 416.893 168.262C417.085 168.75 417.234 169.13 417.335 169.394C417.385 169.524 417.427 169.634 417.457 169.716C417.471 169.756 417.488 169.802 417.503 169.847C417.51 169.867 417.523 169.906 417.536 169.952C417.543 169.974 417.555 170.019 417.568 170.076C417.57 170.084 417.617 170.275 417.617 170.517H413.617C413.617 170.757 413.664 170.946 413.665 170.951C413.677 171.004 413.688 171.044 413.693 171.061C413.703 171.096 413.712 171.121 413.712 171.122C413.715 171.13 413.713 171.123 413.702 171.095C413.683 171.042 413.65 170.955 413.602 170.83C413.506 170.582 413.363 170.214 413.171 169.729C412.79 168.76 412.226 167.341 411.499 165.519C410.045 161.876 407.942 156.631 405.349 150.175C400.162 137.264 393.012 119.515 385.162 100.066L388.872 98.5685ZM417.617 170.517C417.617 171.498 416.955 172.02 416.79 172.141C416.564 172.305 416.356 172.383 416.281 172.411C416.105 172.475 415.952 172.503 415.897 172.513C415.755 172.539 415.606 172.554 415.492 172.564C415.245 172.586 414.909 172.605 414.511 172.623C413.706 172.658 412.534 172.691 411.046 172.721C408.064 172.782 403.761 172.836 398.459 172.879C387.851 172.967 373.22 173.017 357.117 173.017V169.017C373.214 169.017 387.833 168.967 398.426 168.88C403.723 168.836 408.007 168.783 410.964 168.722C412.444 168.692 413.579 168.66 414.337 168.627C414.721 168.61 414.982 168.594 415.136 168.58C415.222 168.572 415.225 168.569 415.185 168.577C415.18 168.578 415.065 168.597 414.915 168.651C414.852 168.674 414.654 168.748 414.435 168.907C414.276 169.023 413.617 169.541 413.617 170.517H417.617ZM357.117 173.017C341.012 173.017 326.379 172.942 315.771 172.829C310.468 172.773 306.164 172.707 303.182 172.637C301.694 172.601 300.522 172.565 299.716 172.527C299.318 172.508 298.982 172.488 298.735 172.465C298.62 172.454 298.472 172.438 298.33 172.412C298.275 172.402 298.122 172.373 297.947 172.309C297.872 172.281 297.665 172.202 297.44 172.038C297.277 171.918 296.617 171.396 296.617 170.417H300.617C300.617 169.443 299.96 168.925 299.803 168.81C299.585 168.651 299.388 168.577 299.326 168.554C299.176 168.499 299.062 168.479 299.056 168.478C299.016 168.471 299.02 168.474 299.106 168.482C299.259 168.496 299.52 168.513 299.904 168.531C300.662 168.567 301.796 168.603 303.277 168.638C306.233 168.708 310.516 168.773 315.813 168.83C326.405 168.942 341.022 169.017 357.117 169.017V173.017ZM296.617 170.417C296.62 170.302 296.638 170.124 296.649 170.061C296.656 170.021 296.671 169.954 296.678 169.926C296.691 169.87 296.705 169.824 296.713 169.8C296.728 169.748 296.745 169.698 296.758 169.661C296.786 169.583 296.821 169.486 296.862 169.377C296.945 169.156 297.064 168.844 297.217 168.45C297.523 167.661 297.973 166.518 298.547 165.067C299.696 162.163 301.349 158.012 303.371 152.954C307.414 142.839 312.93 129.09 318.824 114.433C330.611 85.1212 343.913 52.1662 349.966 37.3602L353.668 38.8738C347.621 53.6678 334.323 86.6127 322.535 115.926C316.642 130.581 311.127 144.327 307.085 154.439C305.064 159.495 303.413 163.642 302.266 166.539C301.693 167.988 301.248 169.121 300.946 169.898C300.795 170.287 300.682 170.581 300.609 170.778C300.571 170.878 300.548 170.943 300.535 170.978C300.528 170.998 300.531 170.993 300.537 170.974C300.539 170.966 300.549 170.933 300.56 170.887C300.566 170.864 300.579 170.802 300.586 170.765C300.596 170.705 300.614 170.53 300.617 170.417H296.617ZM349.975 37.3377C351.63 33.427 353.008 30.4087 354.052 28.4508C354.56 27.4993 355.052 26.6761 355.509 26.1247C355.697 25.8974 356.088 25.4509 356.665 25.2027C357 25.0587 357.542 24.9212 358.165 25.1031C358.803 25.2893 359.199 25.7139 359.413 26.057L356.021 28.177C356.173 28.4201 356.494 28.7822 357.044 28.9429C357.58 29.0993 358.022 28.9733 358.245 28.8773C358.599 28.7253 358.718 28.521 358.588 28.678C358.408 28.8954 358.074 29.4097 357.582 30.3332C356.626 32.1253 355.304 35.007 353.659 38.8963L349.975 37.3377ZM359.506 26.2226C359.651 26.5126 360.599 28.8176 362.108 32.509C363.647 36.2782 365.826 41.633 368.483 48.1773C373.796 61.2662 381.021 79.1175 388.872 98.5685L385.162 100.066C377.313 80.6165 370.088 62.7678 364.776 49.6817C362.12 43.1385 359.943 37.787 358.405 34.0218C357.635 32.139 357.027 30.6545 356.598 29.6168C356.384 29.0975 356.216 28.6928 356.096 28.4071C355.958 28.0789 355.916 27.9863 355.928 28.0114L359.506 26.2226ZM158.471 99.067L187.071 169.767L183.363 171.267L154.763 100.567L158.471 99.067ZM185.227 172.517L127.727 172.817L127.707 168.817L185.207 168.517L185.227 172.517ZM127.723 172.817C111.92 172.867 97.5155 172.867 87.0349 172.829C81.7954 172.811 77.5325 172.783 74.5646 172.747C73.0822 172.729 71.9146 172.708 71.1072 172.686C70.7063 172.675 70.3785 172.664 70.1403 172.65C70.0255 172.644 69.904 172.636 69.796 172.624C69.7472 172.619 69.659 172.608 69.5594 172.589C69.5131 172.58 69.4165 172.559 69.3002 172.521C69.2807 172.515 68.868 172.396 68.5028 172.031L71.3312 169.203C70.9692 168.841 70.5627 168.726 70.5526 168.722C70.4458 168.687 70.3617 168.67 70.331 168.664C70.2918 168.656 70.2627 168.652 70.2499 168.65C70.2356 168.648 70.2268 168.647 70.2255 168.647C70.2238 168.647 70.2341 168.648 70.2607 168.65C70.286 168.652 70.3199 168.654 70.3636 168.656C70.5436 168.666 70.8258 168.677 71.2167 168.688C71.9929 168.709 73.1362 168.729 74.6132 168.747C77.5641 168.783 81.8137 168.811 87.0492 168.83C97.5186 168.867 111.914 168.867 127.711 168.817L127.723 172.817ZM68.5028 172.031C68.1119 171.64 67.9982 171.207 67.9624 171.045C67.9187 170.847 67.9146 170.686 67.9147 170.604C67.9149 170.436 67.9361 170.304 67.9447 170.253C67.9648 170.133 67.9924 170.03 68.007 169.976C68.0407 169.853 68.0859 169.713 68.1319 169.575C68.2273 169.29 68.3694 168.893 68.5505 168.401C68.9149 167.41 69.4607 165.972 70.1664 164.14C71.5789 160.474 73.6438 155.202 76.2071 148.719C81.3343 135.751 88.4612 117.921 96.3627 98.3677L100.071 99.8663C92.1729 119.413 85.0498 137.233 79.9269 150.19C77.3652 156.669 75.3052 161.928 73.8989 165.578C73.1952 167.405 72.6582 168.82 72.3046 169.781C72.1268 170.265 72.0011 170.618 71.9247 170.846C71.9061 170.902 71.8917 170.946 71.881 170.98C71.8757 170.997 71.8717 171.01 71.8688 171.02C71.8674 171.024 71.8663 171.028 71.8656 171.031C71.8648 171.033 71.8645 171.034 71.8645 171.034C71.8646 171.034 71.8651 171.032 71.866 171.029C71.8669 171.025 71.8684 171.019 71.8703 171.011C71.8733 170.998 71.8813 170.964 71.8894 170.916C71.8948 170.883 71.9145 170.766 71.9147 170.609C71.9148 170.533 71.911 170.376 71.8682 170.182C71.8331 170.023 71.7206 169.592 71.3312 169.203L68.5028 172.031ZM96.3627 98.3677C104.264 78.8137 111.517 61.0827 116.832 48.2753C119.49 41.8728 121.665 36.6949 123.197 33.1332C123.962 31.3548 124.571 29.9667 125.002 29.0272C125.215 28.5626 125.396 28.1815 125.536 27.9112C125.6 27.7869 125.685 27.6303 125.776 27.4902C125.808 27.4415 125.916 27.2751 126.083 27.1086C126.146 27.0456 126.382 26.8118 126.766 26.6585C126.979 26.5733 127.328 26.4768 127.759 26.5301C128.225 26.5879 128.632 26.8033 128.931 27.1028L126.103 29.9312C126.4 30.2284 126.804 30.4424 127.267 30.4998C127.694 30.5527 128.04 30.4568 128.249 30.3732C128.625 30.223 128.852 29.9962 128.904 29.9441C128.99 29.8586 129.047 29.7853 129.071 29.7534C129.099 29.7159 129.118 29.6872 129.127 29.6741C129.15 29.6391 129.141 29.6488 129.088 29.7505C128.994 29.9322 128.845 30.2417 128.638 30.6943C128.228 31.5891 127.633 32.9417 126.872 34.7133C125.35 38.2516 123.182 43.4112 120.527 49.8087C115.217 62.6013 107.97 80.3203 100.071 99.8663L96.3627 98.3677ZM128.931 27.1028C129.105 27.2769 129.209 27.4486 129.22 27.4663C129.256 27.523 129.283 27.5723 129.299 27.6016C129.332 27.6625 129.362 27.7229 129.384 27.7696C129.431 27.8674 129.487 27.9898 129.548 28.1262C129.671 28.4031 129.84 28.7948 130.05 29.2889C130.472 30.28 131.072 31.7173 131.83 33.5486C133.348 37.2127 135.506 42.4727 138.144 48.9363C143.42 61.8643 150.621 79.6168 158.472 99.0685L154.762 100.566C146.913 81.1172 139.714 63.3697 134.44 50.4477C131.803 43.9863 129.649 38.7338 128.135 35.0792C127.378 33.251 126.783 31.8274 126.369 30.8537C126.161 30.3653 126.003 29.9986 125.894 29.7534C125.838 29.6287 125.802 29.5491 125.78 29.5054C125.769 29.4814 125.771 29.4862 125.782 29.5069C125.787 29.516 125.805 29.5491 125.833 29.5933C125.836 29.5987 125.933 29.7618 126.103 29.9312L128.931 27.1028ZM269.674 196.06C260.673 218.561 254.218 234.449 249.949 244.64C247.816 249.731 246.221 253.42 245.123 255.806C244.578 256.991 244.137 257.895 243.803 258.499C243.647 258.783 243.465 259.091 243.271 259.338C243.2 259.429 242.986 259.699 242.647 259.912C242.474 260.02 242.084 260.232 241.542 260.231C240.89 260.23 240.335 259.923 239.981 259.497L243.053 256.937C242.714 256.53 242.179 256.232 241.549 256.231C241.031 256.23 240.666 256.433 240.523 256.522C240.36 256.625 240.255 256.727 240.212 256.77C240.162 256.82 240.132 256.858 240.123 256.87C240.107 256.89 240.162 256.818 240.302 256.565C240.561 256.096 240.952 255.303 241.489 254.134C242.557 251.814 244.13 248.178 246.26 243.094C250.516 232.935 256.961 217.073 265.96 194.574L269.674 196.06ZM240.012 259.534C239.826 259.322 239.708 259.088 239.703 259.079C239.66 258.998 239.616 258.909 239.576 258.825C239.493 258.652 239.39 258.427 239.272 258.162C239.035 257.628 238.712 256.879 238.319 255.952C237.532 254.095 236.448 251.491 235.17 248.392C232.613 242.193 229.27 233.995 225.951 225.792C222.631 217.59 219.332 209.379 216.863 203.155C215.628 200.043 214.599 197.423 213.877 195.547C213.517 194.61 213.23 193.849 213.032 193.302C212.933 193.031 212.851 192.797 212.791 192.615C212.762 192.526 212.732 192.428 212.706 192.336C212.694 192.29 212.677 192.226 212.662 192.153C212.654 192.112 212.617 191.936 212.617 191.717H216.617C216.617 191.513 216.583 191.361 216.581 191.352C216.577 191.328 216.573 191.311 216.57 191.302C216.568 191.292 216.566 191.286 216.566 191.284C216.566 191.284 216.573 191.31 216.593 191.372C216.633 191.493 216.698 191.68 216.791 191.937C216.977 192.448 217.253 193.181 217.611 194.111C218.325 195.967 219.348 198.572 220.581 201.679C223.046 207.892 226.341 216.094 229.658 224.292C232.976 232.489 236.315 240.679 238.868 246.867C240.144 249.962 241.222 252.552 242.002 254.39C242.392 255.311 242.704 256.035 242.927 256.537C243.04 256.79 243.124 256.973 243.181 257.093C243.195 257.121 243.206 257.144 243.214 257.161C243.219 257.169 243.222 257.176 243.224 257.181C243.227 257.185 243.228 257.187 243.228 257.187C243.229 257.189 243.227 257.185 243.227 257.185C243.227 257.185 243.223 257.179 243.223 257.178C243.219 257.172 243.212 257.159 243.202 257.143C243.197 257.135 243.133 257.026 243.022 256.9L240.012 259.534ZM212.617 191.717C212.617 191.016 212.966 190.537 213.191 190.305C213.409 190.081 213.63 189.957 213.739 189.901C213.963 189.786 214.171 189.729 214.264 189.706C214.483 189.65 214.724 189.614 214.929 189.588C215.364 189.533 215.96 189.485 216.67 189.443C218.104 189.356 220.153 189.28 222.654 189.218C227.664 189.092 234.556 189.017 242.117 189.017V193.017C234.578 193.017 227.72 193.092 222.755 193.216C220.268 193.279 218.274 193.353 216.911 193.435C216.222 193.477 215.732 193.518 215.43 193.556C215.266 193.577 215.226 193.588 215.256 193.581C215.269 193.577 215.301 193.569 215.345 193.554C215.385 193.54 215.466 193.511 215.568 193.459C215.652 193.415 215.855 193.304 216.061 193.091C216.274 192.872 216.617 192.406 216.617 191.717H212.617ZM242.117 189.017H269.617V193.017H242.117V189.017ZM271.462 191.789L269.662 196.089L265.972 194.545L267.772 190.245L271.462 191.789Z" fill="#FFE019" mask="url(#path-1-inside-1)"/>
</g>
<defs>
<filter id="filter0_d" x="0" y="0" width="485.518" height="298.017" filterUnits="userSpaceOnUse" color-interpolation-filters="sRGB">
<feFlood flood-opacity="0" result="BackgroundImageFix"/>
<feColorMatrix in="SourceAlpha" type="matrix" values="0 0 0 0 0 0 0 0 0 0 0 0 0 0 0 0 0 0 127 0"/>
<feOffset dy="4"/>
<feGaussianBlur stdDeviation="2"/>
<feColorMatrix type="matrix" values="0 0 0 0 0 0 0 0 0 0 0 0 0 0 0 0 0 0 0.25 0"/>
<feBlend mode="normal" in2="BackgroundImageFix" result="effect1_dropShadow"/>
<feBlend mode="normal" in="SourceGraphic" in2="effect1_dropShadow" result="shape"/>
</filter>
<radialGradient id="paint0_radial" cx="0" cy="0" r="1" gradientUnits="userSpaceOnUse" gradientTransform="translate(242.759 145.008) rotate(-90) scale(145.008 238.759)">
<stop/>
<stop offset="1"/>
</radialGradient>
</defs>
</svg>
